<svg viewBox="0 0 8 16" xmlns="http://www.w3.org/2000/svg">  <rect width="1" height="1" x="6" y="1" />
  <rect width="1" height="1" x="6" y="2" />
  <rect width="1" height="1" x="6" y="3" />
  <rect width="1" height="1" x="6" y="4" />
  <rect width="1" height="1" x="6" y="5" />
  <rect width="1" height="1" x="6" y="6" />
  <rect width="1" height="1" x="2" y="7" />
  <rect width="1" height="1" x="5" y="7" />
  <rect width="1" height="1" x="2" y="8" />
  <rect width="1" height="1" x="5" y="8" />
  <rect width="1" height="1" x="3" y="9" />
  <rect width="1" height="1" x="5" y="9" />
  <rect width="1" height="1" x="4" y="10" />
  <rect width="1" height="1" x="3" y="11" />
  <rect width="1" height="1" x="5" y="11" />
  <rect width="1" height="1" x="2" y="12" />
  <rect width="1" height="1" x="6" y="12" />
  <rect width="1" height="1" x="0" y="13" />
  <rect width="1" height="1" x="1" y="13" />
</svg>