<svg viewBox="0 0 16 16" xmlns="http://www.w3.org/2000/svg">  <rect width="1" height="1" x="9" y="1" />
  <rect width="1" height="1" x="9" y="2" />
  <rect width="1" height="1" x="5" y="3" />
  <rect width="1" height="1" x="9" y="3" />
  <rect width="1" height="1" x="5" y="4" />
  <rect width="1" height="1" x="9" y="4" />
  <rect width="1" height="1" x="5" y="5" />
  <rect width="1" height="1" x="9" y="5" />
  <rect width="1" height="1" x="5" y="6" />
  <rect width="1" height="1" x="9" y="6" />
  <rect width="1" height="1" x="5" y="7" />
  <rect width="1" height="1" x="7" y="7" />
  <rect width="1" height="1" x="8" y="7" />
  <rect width="1" height="1" x="9" y="7" />
  <rect width="1" height="1" x="4" y="8" />
  <rect width="1" height="1" x="5" y="8" />
  <rect width="1" height="1" x="6" y="8" />
  <rect width="1" height="1" x="9" y="8" />
  <rect width="1" height="1" x="9" y="9" />
  <rect width="1" height="1" x="10" y="9" />
  <rect width="1" height="1" x="8" y="10" />
  <rect width="1" height="1" x="9" y="10" />
  <rect width="1" height="1" x="6" y="11" />
  <rect width="1" height="1" x="7" y="11" />
  <rect width="1" height="1" x="9" y="11" />
  <rect width="1" height="1" x="3" y="12" />
  <rect width="1" height="1" x="4" y="12" />
  <rect width="1" height="1" x="5" y="12" />
  <rect width="1" height="1" x="9" y="12" />
  <rect width="1" height="1" x="9" y="13" />
</svg>