<?xml version="1.0" encoding="UTF-8" standalone="no"?>
<!-- Created with Inkscape (http://www.inkscape.org/) -->

<svg
   width="34.524529mm"
   height="38.932076mm"
   viewBox="0 0 34.52453 38.932074"
   version="1.1"
   id="svg5"
   xml:space="preserve"
   inkscape:version="1.2.1 (9c6d41e410, 2022-07-14)"
   sodipodi:docname="logo.svg"
   xmlns:inkscape="http://www.inkscape.org/namespaces/inkscape"
   xmlns:sodipodi="http://sodipodi.sourceforge.net/DTD/sodipodi-0.dtd"
   xmlns="http://www.w3.org/2000/svg"
   xmlns:svg="http://www.w3.org/2000/svg"><sodipodi:namedview
     id="namedview7"
     pagecolor="#ffffff"
     bordercolor="#666666"
     borderopacity="1.0"
     inkscape:showpageshadow="2"
     inkscape:pageopacity="0.0"
     inkscape:pagecheckerboard="0"
     inkscape:deskcolor="#d1d1d1"
     inkscape:document-units="mm"
     showgrid="false"
     inkscape:zoom="4.5127968"
     inkscape:cx="91.185138"
     inkscape:cy="72.349812"
     inkscape:window-width="1920"
     inkscape:window-height="1001"
     inkscape:window-x="-9"
     inkscape:window-y="-9"
     inkscape:window-maximized="1"
     inkscape:current-layer="layer1" /><defs
     id="defs2" /><g
     inkscape:label="Layer 1"
     inkscape:groupmode="layer"
     id="layer1"
     transform="translate(-123.592,-91.20121)"><rect
       style="fill:#ffffff;fill-opacity:0.780392;stroke-width:1;stroke-linecap:round"
       id="rect1056"
       width="34.524529"
       height="38.932076"
       x="123.592"
       y="91.20121" /><g
       id="g338"
       transform="matrix(0.99844149,0,0,0.99842766,143.13879,89.204355)"><rect
         width="1"
         height="1"
         x="4"
         y="2"
         id="rect182" /><rect
         width="1"
         height="1"
         x="7"
         y="2"
         id="rect184" /><rect
         width="1"
         height="1"
         x="10"
         y="2"
         id="rect186" /><rect
         width="1"
         height="1"
         x="4"
         y="3"
         id="rect188" /><rect
         width="1"
         height="1"
         x="7"
         y="3"
         id="rect190" /><rect
         width="1"
         height="1"
         x="10"
         y="3"
         id="rect192" /><rect
         width="1"
         height="1"
         x="4"
         y="4"
         id="rect194" /><rect
         width="1"
         height="1"
         x="7"
         y="4"
         id="rect196" /><rect
         width="1"
         height="1"
         x="10"
         y="4"
         id="rect198" /><rect
         width="1"
         height="1"
         x="2"
         y="5"
         id="rect200" /><rect
         width="1"
         height="1"
         x="3"
         y="5"
         id="rect202" /><rect
         width="1"
         height="1"
         x="4"
         y="5"
         id="rect204" /><rect
         width="1"
         height="1"
         x="5"
         y="5"
         id="rect206" /><rect
         width="1"
         height="1"
         x="6"
         y="5"
         id="rect208" /><rect
         width="1"
         height="1"
         x="7"
         y="5"
         id="rect210" /><rect
         width="1"
         height="1"
         x="8"
         y="5"
         id="rect212" /><rect
         width="1"
         height="1"
         x="9"
         y="5"
         id="rect214" /><rect
         width="1"
         height="1"
         x="10"
         y="5"
         id="rect216" /><rect
         width="1"
         height="1"
         x="11"
         y="5"
         id="rect218" /><rect
         width="1"
         height="1"
         x="12"
         y="5"
         id="rect220" /><rect
         width="1"
         height="1"
         x="4"
         y="6"
         id="rect222" /><rect
         width="1"
         height="1"
         x="7"
         y="6"
         id="rect224" /><rect
         width="1"
         height="1"
         x="10"
         y="6"
         id="rect226" /><rect
         width="1"
         height="1"
         x="4"
         y="7"
         id="rect228" /><rect
         width="1"
         height="1"
         x="7"
         y="7"
         id="rect230" /><rect
         width="1"
         height="1"
         x="10"
         y="7"
         id="rect232" /><rect
         width="1"
         height="1"
         x="4"
         y="8"
         id="rect234" /><rect
         width="1"
         height="1"
         x="7"
         y="8"
         id="rect236" /><rect
         width="1"
         height="1"
         x="10"
         y="8"
         id="rect238" /><rect
         width="1"
         height="1"
         x="2"
         y="9"
         id="rect240" /><rect
         width="1"
         height="1"
         x="3"
         y="9"
         id="rect242" /><rect
         width="1"
         height="1"
         x="4"
         y="9"
         id="rect244" /><rect
         width="1"
         height="1"
         x="5"
         y="9"
         id="rect246" /><rect
         width="1"
         height="1"
         x="6"
         y="9"
         id="rect248" /><rect
         width="1"
         height="1"
         x="7"
         y="9"
         id="rect250" /><rect
         width="1"
         height="1"
         x="8"
         y="9"
         id="rect252" /><rect
         width="1"
         height="1"
         x="9"
         y="9"
         id="rect254" /><rect
         width="1"
         height="1"
         x="10"
         y="9"
         id="rect256" /><rect
         width="1"
         height="1"
         x="11"
         y="9"
         id="rect258" /><rect
         width="1"
         height="1"
         x="12"
         y="9"
         id="rect260" /><rect
         width="1"
         height="1"
         x="13"
         y="9"
         id="rect262" /><rect
         width="1"
         height="1"
         x="4"
         y="10"
         id="rect264" /><rect
         width="1"
         height="1"
         x="7"
         y="10"
         id="rect266" /><rect
         width="1"
         height="1"
         x="10"
         y="10"
         id="rect268" /><rect
         width="1"
         height="1"
         x="4"
         y="11"
         id="rect270" /><rect
         width="1"
         height="1"
         x="7"
         y="11"
         id="rect272" /><rect
         width="1"
         height="1"
         x="10"
         y="11"
         id="rect274" /><rect
         width="1"
         height="1"
         x="4"
         y="12"
         id="rect276" /><rect
         width="1"
         height="1"
         x="7"
         y="12"
         id="rect278" /><rect
         width="1"
         height="1"
         x="10"
         y="12"
         id="rect280" /></g><g
       id="g517"
       transform="matrix(0.99844149,0,0,0.99842766,144.13835,106.20279)"><rect
         width="1"
         height="1"
         x="8"
         y="1"
         id="rect340" /><rect
         width="1"
         height="1"
         x="3"
         y="2"
         id="rect342" /><rect
         width="1"
         height="1"
         x="8"
         y="2"
         id="rect344" /><rect
         width="1"
         height="1"
         x="11"
         y="2"
         id="rect346" /><rect
         width="1"
         height="1"
         x="3"
         y="3"
         id="rect348" /><rect
         width="1"
         height="1"
         x="8"
         y="3"
         id="rect350" /><rect
         width="1"
         height="1"
         x="11"
         y="3"
         id="rect352" /><rect
         width="1"
         height="1"
         x="1"
         y="4"
         id="rect354" /><rect
         width="1"
         height="1"
         x="2"
         y="4"
         id="rect356" /><rect
         width="1"
         height="1"
         x="3"
         y="4"
         id="rect358" /><rect
         width="1"
         height="1"
         x="4"
         y="4"
         id="rect360" /><rect
         width="1"
         height="1"
         x="5"
         y="4"
         id="rect362" /><rect
         width="1"
         height="1"
         x="8"
         y="4"
         id="rect364" /><rect
         width="1"
         height="1"
         x="11"
         y="4"
         id="rect366" /><rect
         width="1"
         height="1"
         x="1"
         y="5"
         id="rect368" /><rect
         width="1"
         height="1"
         x="3"
         y="5"
         id="rect370" /><rect
         width="1"
         height="1"
         x="5"
         y="5"
         id="rect372" /><rect
         width="1"
         height="1"
         x="8"
         y="5"
         id="rect374" /><rect
         width="1"
         height="1"
         x="11"
         y="5"
         id="rect376" /><rect
         width="1"
         height="1"
         x="1"
         y="6"
         id="rect378" /><rect
         width="1"
         height="1"
         x="3"
         y="6"
         id="rect380" /><rect
         width="1"
         height="1"
         x="5"
         y="6"
         id="rect382" /><rect
         width="1"
         height="1"
         x="8"
         y="6"
         id="rect384" /><rect
         width="1"
         height="1"
         x="11"
         y="6"
         id="rect386" /><rect
         width="1"
         height="1"
         x="1"
         y="7"
         id="rect388" /><rect
         width="1"
         height="1"
         x="3"
         y="7"
         id="rect390" /><rect
         width="1"
         height="1"
         x="5"
         y="7"
         id="rect392" /><rect
         width="1"
         height="1"
         x="7"
         y="7"
         id="rect394" /><rect
         width="1"
         height="1"
         x="9"
         y="7"
         id="rect396" /><rect
         width="1"
         height="1"
         x="11"
         y="7"
         id="rect398" /><rect
         width="1"
         height="1"
         x="1"
         y="8"
         id="rect400" /><rect
         width="1"
         height="1"
         x="3"
         y="8"
         id="rect402" /><rect
         width="1"
         height="1"
         x="5"
         y="8"
         id="rect404" /><rect
         width="1"
         height="1"
         x="7"
         y="8"
         id="rect406" /><rect
         width="1"
         height="1"
         x="9"
         y="8"
         id="rect408" /><rect
         width="1"
         height="1"
         x="10"
         y="8"
         id="rect410" /><rect
         width="1"
         height="1"
         x="1"
         y="9"
         id="rect412" /><rect
         width="1"
         height="1"
         x="3"
         y="9"
         id="rect414" /><rect
         width="1"
         height="1"
         x="5"
         y="9"
         id="rect416" /><rect
         width="1"
         height="1"
         x="7"
         y="9"
         id="rect418" /><rect
         width="1"
         height="1"
         x="10"
         y="9"
         id="rect420" /><rect
         width="1"
         height="1"
         x="11"
         y="9"
         id="rect422" /><rect
         width="1"
         height="1"
         x="1"
         y="10"
         id="rect424" /><rect
         width="1"
         height="1"
         x="3"
         y="10"
         id="rect426" /><rect
         width="1"
         height="1"
         x="6"
         y="10"
         id="rect428" /><rect
         width="1"
         height="1"
         x="9"
         y="10"
         id="rect430" /><rect
         width="1"
         height="1"
         x="12"
         y="10"
         id="rect432" /><rect
         width="1"
         height="1"
         x="3"
         y="11"
         id="rect434" /><rect
         width="1"
         height="1"
         x="5"
         y="11"
         id="rect436" /><rect
         width="1"
         height="1"
         x="9"
         y="11"
         id="rect438" /><rect
         width="1"
         height="1"
         x="13"
         y="11"
         id="rect440" /><rect
         width="1"
         height="1"
         x="3"
         y="12"
         id="rect442" /><rect
         width="1"
         height="1"
         x="8"
         y="12"
         id="rect444" /><rect
         width="1"
         height="1"
         x="13"
         y="12"
         id="rect446" /><rect
         width="1"
         height="1"
         x="3"
         y="13"
         id="rect448" /><rect
         width="1"
         height="1"
         x="6"
         y="13"
         id="rect450" /><rect
         width="1"
         height="1"
         x="7"
         y="13"
         id="rect452" /></g><g
       id="g621"
       transform="matrix(0.99844149,0,0,0.99842766,122.59356,98.190204)"><rect
         width="1"
         height="1"
         x="7"
         y="2"
         id="rect519" /><rect
         width="1"
         height="1"
         x="7"
         y="3"
         id="rect521" /><rect
         width="1"
         height="1"
         x="7"
         y="4"
         id="rect523" /><rect
         width="1"
         height="1"
         x="7"
         y="5"
         id="rect525" /><rect
         width="1"
         height="1"
         x="6"
         y="6"
         id="rect527" /><rect
         width="1"
         height="1"
         x="8"
         y="6"
         id="rect529" /><rect
         width="1"
         height="1"
         x="5"
         y="7"
         id="rect531" /><rect
         width="1"
         height="1"
         x="9"
         y="7"
         id="rect533" /><rect
         width="1"
         height="1"
         x="3"
         y="8"
         id="rect535" /><rect
         width="1"
         height="1"
         x="4"
         y="8"
         id="rect537" /><rect
         width="1"
         height="1"
         x="10"
         y="8"
         id="rect539" /><rect
         width="1"
         height="1"
         x="11"
         y="8"
         id="rect541" /><rect
         width="1"
         height="1"
         x="1"
         y="9"
         id="rect543" /><rect
         width="1"
         height="1"
         x="2"
         y="9"
         id="rect545" /><rect
         width="1"
         height="1"
         x="4"
         y="9"
         id="rect547" /><rect
         width="1"
         height="1"
         x="5"
         y="9"
         id="rect549" /><rect
         width="1"
         height="1"
         x="6"
         y="9"
         id="rect551" /><rect
         width="1"
         height="1"
         x="7"
         y="9"
         id="rect553" /><rect
         width="1"
         height="1"
         x="8"
         y="9"
         id="rect555" /><rect
         width="1"
         height="1"
         x="9"
         y="9"
         id="rect557" /><rect
         width="1"
         height="1"
         x="10"
         y="9"
         id="rect559" /><rect
         width="1"
         height="1"
         x="12"
         y="9"
         id="rect561" /><rect
         width="1"
         height="1"
         x="13"
         y="9"
         id="rect563" /><rect
         width="1"
         height="1"
         x="4"
         y="10"
         id="rect565" /><rect
         width="1"
         height="1"
         x="4"
         y="11"
         id="rect567" /><rect
         width="1"
         height="1"
         x="4"
         y="12"
         id="rect569" /><rect
         width="1"
         height="1"
         x="5"
         y="13"
         id="rect571" /><rect
         width="1"
         height="1"
         x="6"
         y="13"
         id="rect573" /><rect
         width="1"
         height="1"
         x="7"
         y="13"
         id="rect575" /><rect
         width="1"
         height="1"
         x="8"
         y="13"
         id="rect577" /><rect
         width="1"
         height="1"
         x="9"
         y="13"
         id="rect579" /><rect
         width="1"
         height="1"
         x="10"
         y="13"
         id="rect581" /></g><g
       id="g758"
       transform="matrix(0.99844149,0,0,0.99842766,123.59512,116.1553)"><rect
         width="1"
         height="1"
         x="3"
         y="2"
         id="rect623" /><rect
         width="1"
         height="1"
         x="4"
         y="2"
         id="rect625" /><rect
         width="1"
         height="1"
         x="5"
         y="2"
         id="rect627" /><rect
         width="1"
         height="1"
         x="6"
         y="2"
         id="rect629" /><rect
         width="1"
         height="1"
         x="7"
         y="2"
         id="rect631" /><rect
         width="1"
         height="1"
         x="8"
         y="2"
         id="rect633" /><rect
         width="1"
         height="1"
         x="8"
         y="3"
         id="rect635" /><rect
         width="1"
         height="1"
         x="5"
         y="4"
         id="rect637" /><rect
         width="1"
         height="1"
         x="7"
         y="4"
         id="rect639" /><rect
         width="1"
         height="1"
         x="6"
         y="5"
         id="rect641" /><rect
         width="1"
         height="1"
         x="4"
         y="6"
         id="rect643" /><rect
         width="1"
         height="1"
         x="5"
         y="6"
         id="rect645" /><rect
         width="1"
         height="1"
         x="7"
         y="6"
         id="rect647" /><rect
         width="1"
         height="1"
         x="2"
         y="7"
         id="rect649" /><rect
         width="1"
         height="1"
         x="3"
         y="7"
         id="rect651" /><rect
         width="1"
         height="1"
         x="4"
         y="7"
         id="rect653" /><rect
         width="1"
         height="1"
         x="5"
         y="7"
         id="rect655" /><rect
         width="1"
         height="1"
         x="6"
         y="7"
         id="rect657" /><rect
         width="1"
         height="1"
         x="7"
         y="7"
         id="rect659" /><rect
         width="1"
         height="1"
         x="7"
         y="8"
         id="rect661" /><rect
         width="1"
         height="1"
         x="4"
         y="9"
         id="rect663" /><rect
         width="1"
         height="1"
         x="7"
         y="9"
         id="rect665" /><rect
         width="1"
         height="1"
         x="9"
         y="9"
         id="rect667" /><rect
         width="1"
         height="1"
         x="4"
         y="10"
         id="rect669" /><rect
         width="1"
         height="1"
         x="6"
         y="10"
         id="rect671" /><rect
         width="1"
         height="1"
         x="10"
         y="10"
         id="rect673" /><rect
         width="1"
         height="1"
         x="12"
         y="10"
         id="rect675" /><rect
         width="1"
         height="1"
         x="4"
         y="11"
         id="rect677" /><rect
         width="1"
         height="1"
         x="5"
         y="11"
         id="rect679" /><rect
         width="1"
         height="1"
         x="10"
         y="11"
         id="rect681" /><rect
         width="1"
         height="1"
         x="12"
         y="11"
         id="rect683" /><rect
         width="1"
         height="1"
         x="4"
         y="12"
         id="rect685" /><rect
         width="1"
         height="1"
         x="5"
         y="12"
         id="rect687" /><rect
         width="1"
         height="1"
         x="12"
         y="12"
         id="rect689" /><rect
         width="1"
         height="1"
         x="2"
         y="13"
         id="rect691" /><rect
         width="1"
         height="1"
         x="3"
         y="13"
         id="rect693" /><rect
         width="1"
         height="1"
         x="6"
         y="13"
         id="rect695" /><rect
         width="1"
         height="1"
         x="7"
         y="13"
         id="rect697" /><rect
         width="1"
         height="1"
         x="8"
         y="13"
         id="rect699" /><rect
         width="1"
         height="1"
         x="9"
         y="13"
         id="rect701" /><rect
         width="1"
         height="1"
         x="10"
         y="13"
         id="rect703" /><rect
         width="1"
         height="1"
         x="11"
         y="13"
         id="rect705" /><rect
         width="1"
         height="1"
         x="12"
         y="13"
         id="rect707" /></g></g></svg>
